<svg xmlns="http://www.w3.org/2000/svg" viewBox="0 0 593.6767 265.9412">
  <g>
    <path d="M593.4465,66.3962A6.8546,6.8546,0,0,0,590.9353,62.5a6.0257,6.0257,0,0,0-4.3281-1.0734,7.3881,7.3881,0,0,0-4.76,2.896,136.53,136.53,0,0,1-8.9165,14,126.4632,126.4632,0,0,1-9.783,11.8988,69.2857,69.2857,0,0,1-10.303,9.13,45.0486,45.0486,0,0,1-10.6474,5.7274,21.0915,21.0915,0,0,1-3.81,1.0015,12.5122,12.5122,0,0,1-4.1543.0222,8.39,8.39,0,0,1-3.6357-1.4526,6.2882,6.2882,0,0,1-2.2511-3.5948l-.52-1.4684a92.8609,92.8609,0,0,0,15.93-5.7706,74.135,74.135,0,0,0,14.3711-8.7051A49.5979,49.5979,0,0,0,568.688,74.0317a24.7884,24.7884,0,0,0,4.5-12.8943,15.7878,15.7878,0,0,0-1.8172-6.44,14.1958,14.1958,0,0,0-4.8484-5.313,18.796,18.796,0,0,0-8.1379-2.7553,35.3752,35.3752,0,0,0-11.86.9145,49.4268,49.4268,0,0,0-12.5524,4.8434,78.196,78.196,0,0,0-12.12,8.144,85.3667,85.3667,0,0,0-10.6473,10.3156,75.7555,75.7555,0,0,0-4.9391,6.364,8.2181,8.2181,0,0,0-1.12.9984q-5.0241,7.2708-9.6968,13.788a132.1592,132.1592,0,0,1-9.5227,11.8532,73.0994,73.0994,0,0,1-9.8689,9.1423,39.6335,39.6335,0,0,1-10.5614,5.7987,20.6266,20.6266,0,0,1-3.55.2644,16.8118,16.8118,0,0,1-3.896-.4554,8.9779,8.9779,0,0,1-3.4619-1.6547,6.6884,6.6884,0,0,1-2.251-3.1625,21.2968,21.2968,0,0,1-.26-10.3435,42.1025,42.1025,0,0,1,3.8959-11.1454,48.0645,48.0645,0,0,1,6.8393-10.0068,32.35,32.35,0,0,1,8.7427-7.1307,6.2888,6.2888,0,0,1,3.4636-1.1151q1.3838.11,1.5586.9436a10.2075,10.2075,0,0,1-.26,4.2868,12.9136,12.9136,0,0,1-1.8188,4.2088q-2.5965,4.4308-1.731,7.3963a5.6752,5.6752,0,0,0,3.4636,3.8194,10.8029,10.8029,0,0,0,5.887.4591,16.0726,16.0726,0,0,0,6.2314-2.6306,15.0267,15.0267,0,0,0,5.0222-5.8844q1.384-2.8357,2.5975-5.9876a17.8635,17.8635,0,0,0,1.2107-6.4413,15.8789,15.8789,0,0,0-1.4709-6.6725,12.2442,12.2442,0,0,0-4.6744-5.256,19.561,19.561,0,0,0-8.312-2.6393,37.5967,37.5967,0,0,0-12.2061.9741,49.4312,49.4312,0,0,0-12.5525,4.8434,78.2063,78.2063,0,0,0-12.12,8.1439A85.3608,85.3608,0,0,0,435.197,83.9211a75.9351,75.9351,0,0,0-4.8544,6.2384,10.3529,10.3529,0,0,0-.8587.8914L421,105.4958a45.821,45.821,0,0,1-3.4619,4.6645q-2.2524,2.7241-4.9353,5.5233-2.6862,2.8-5.54,5.2812a31.2947,31.2947,0,0,1-5.1085,3.736,4.0542,4.0542,0,0,0-1.4708,1.1185c-.29.3961-.55.3275-.7794-.2121a5.181,5.181,0,0,1,.2591-2.2957q.4311-1.632.7794-3.2507l9.8691-25.2444q2.2484-5.7522.8654-10.364a11.19,11.19,0,0,0-7.2717-7.58,20.6365,20.6365,0,0,0-11.7739-.572,23.2787,23.2787,0,0,0-8.57,4.2445,45.7411,45.7411,0,0,0-7.5318,7.3556,11.5394,11.5394,0,0,0-5.02-6.6681,12.1161,12.1161,0,0,0-8.6575-1.3683,18.4652,18.4652,0,0,0-5.1944,1.76,33.627,33.627,0,0,0-6.4923,4.6656,61.048,61.048,0,0,0-6.06,6.3231,75.3792,75.3792,0,0,0-5.3677,7.33,84.2558,84.2558,0,0,0-4.2356,7.3406c-.0592.0581-.1188.1109-.1778.171l-8.1371,14.2121a36.7434,36.7434,0,0,1-3.1166,4.258,61.94,61.94,0,0,1-4.6753,5.0463q-2.5963,2.5251-5.3676,4.7323a58.1526,58.1526,0,0,1-5.0207,3.6339,3.1238,3.1238,0,0,1-2.164-.7532,1.8692,1.8692,0,0,1-.4331-2.2627q1.729-4.6232,4.5881-12.13,2.8575-7.5032,5.627-14.3866v.1731a18.1836,18.1836,0,0,0,1.4716-3.4558q.6051-1.9215,1.2987-3.6,1.5577-4.0743,1.0385-6.4118a4.6135,4.6135,0,0,0-4.0681-3.4554,27.7414,27.7414,0,0,0-7.7049.1137,31.9376,31.9376,0,0,0-7.0124,1.6385,9.5846,9.5846,0,0,0-4.9345,4.3986,17.7627,17.7627,0,0,0-7.878-3.6664,31.82,31.82,0,0,0-10.8213-.0426,32.6058,32.6058,0,0,0-11.687,4.26,62.8817,62.8817,0,0,0-11.3406,8.4439,74.3615,74.3615,0,0,0-9.869,11.3073,72.5921,72.5921,0,0,0-7.4457,13.0538q-1.1374,2.6065-1.9886,5.19c-.89,1.35-2.0075,2.92-3.3764,4.7362a64.5391,64.5391,0,0,1-4.9344,5.7833,65.55,65.55,0,0,1-5.4538,5.0941,19.8519,19.8519,0,0,1-5.0214,3.2009,1.9853,1.9853,0,0,1-.7793.3072,2.0016,2.0016,0,0,0-.7786.307,3.284,3.284,0,0,1-.6932.2923,5.1835,5.1835,0,0,1,.26-2.2958q.43-1.6317.7793-3.2506l9.8689-25.2445q2.2485-5.752.8655-10.364a11.1582,11.1582,0,0,0-7.3587-7.5646,21.0476,21.0476,0,0,0-11.86-.5572,21.6063,21.6063,0,0,0-9.35,4.8979q5.7136-13.4494,10.4753-24.9165Q212.8856,76.712,215.312,70.58v-.1731a13.3539,13.3539,0,0,0,1.0386-3.6414,5.9663,5.9663,0,0,0-.1731-2.5675,4.633,4.633,0,0,0-4.1552-3.44,28.2027,28.2027,0,0,0-7.6188.0989,26.7536,26.7536,0,0,0-7.5317,1.9879,10.5557,10.5557,0,0,0-4.9344,5.35q-2.2524,5.0623-5.887,13.5659-3.6348,8.5054-7.964,18.8567-4.33,10.3541-9.0906,21.8217-3.5736,8.61-6.9547,16.7974a148.6555,148.6555,0,0,1-16.6774,21.809,114.2678,114.2678,0,0,1-18.5262,16.1723,83.8063,83.8063,0,0,1-17.8339,9.4738,91.3281,91.3281,0,0,1-16.2751,4.5313q-3.81.6555-7.3588.92-3.55.2654-6.8393.3109A62.411,62.411,0,0,1,61.13,190.4252a41.8756,41.8756,0,0,1-13.5047-6.3343,38.043,38.043,0,0,1-9.696-10.1922,52.9592,52.9592,0,0,1-6.1461-13.227,72.23,72.23,0,0,1-2.5973-25.4381,116.8263,116.8263,0,0,1,5.54-28.4818A147.34,147.34,0,0,1,47.7119,77.8536,144.9532,144.9532,0,0,1,67.45,51.3439a137.5926,137.5926,0,0,1,25.885-21.507A108.523,108.523,0,0,1,124.5864,16.064,43.4215,43.4215,0,0,1,136.88,14.9018a26.08,26.08,0,0,1,9.1765,2.1444,17.4234,17.4234,0,0,1,6.1461,4.57,17.846,17.846,0,0,1,3.3766,6.0854,60.05,60.05,0,0,1-.5193,14.8928A80.9008,80.9008,0,0,1,150.8176,58.82a96.9867,96.9867,0,0,1-7.705,15.9557A83.52,83.52,0,0,1,132.4643,88.987a63.2742,63.2742,0,0,1-13.2456,10.8488,43.3211,43.3211,0,0,1-15.41,5.8533,20.1819,20.1819,0,0,1-8.31-.3015,6.953,6.953,0,0,1-5.3677-4.9636,15.8958,15.8958,0,0,1,1.2117-11.8092A49.7443,49.7443,0,0,1,99.3077,76.77a79.6807,79.6807,0,0,1,10.9945-10.2023,73.5361,73.5361,0,0,1,10.4752-6.91,6.7121,6.7121,0,0,0,2.77-3.3339,6.192,6.192,0,0,0,0-3.5488,8.4977,8.4977,0,0,0-2.9435-3.8228,4.4325,4.4325,0,0,0-4.502-.61,57.7293,57.7293,0,0,0-12.12,6.5A107.801,107.801,0,0,0,91.776,64.6473a111.648,111.648,0,0,0-11.0807,11.861A86.5756,86.5756,0,0,0,72.0381,89.339a51.49,51.49,0,0,0-5.0215,12.6368,20.4634,20.4634,0,0,0,.0869,11.0665,19.2946,19.2946,0,0,0,4.6744,8.0263,23.077,23.077,0,0,0,7.0995,4.8389,26.0252,26.0252,0,0,0,8.4834,2.09,34.81,34.81,0,0,0,8.6572-.3636,60.7563,60.7563,0,0,0,20.0843-7.6968,116.7555,116.7555,0,0,0,20.0849-14.8817A160.7464,160.7464,0,0,0,154.28,85.4937a145.9964,145.9964,0,0,0,14.2841-21.8488,98.0838,98.0838,0,0,0,8.57-21.8184,44.0961,44.0961,0,0,0,.9524-19.3825,28.5675,28.5675,0,0,0-6.4931-11.0032,32.8556,32.8556,0,0,0-11.6868-7.8586A52.1012,52.1012,0,0,0,142.94.0946a85.1272,85.1272,0,0,0-22.3353,2.1109,115.2468,115.2468,0,0,0-34.109,12.5326A158.2441,158.2441,0,0,0,55.33,37.4136,184.88,184.88,0,0,0,29.1855,67.6217a175.6724,175.6724,0,0,0-18.8724,34.845A145.2731,145.2731,0,0,0,.79,139.4255,104.0355,104.0355,0,0,0,2.6943,175.89a63.9391,63.9391,0,0,0,10.9945,21.31A60.5515,60.5515,0,0,0,30.311,211.7424a66.275,66.275,0,0,0,20.43,7.8264,78.7043,78.7043,0,0,0,22.2491,1.3665q1.9032-.156,3.8089-.395,1.9032-.2418,3.809-.5691a102.5944,102.5944,0,0,0,28.049-9.153A135.68,135.68,0,0,0,133.59,195.0157q5.7272-4.585,10.8227-9.5632a3.2165,3.2165,0,0,0,.0841.3285,4.3169,4.3169,0,0,0,3.8958,3.485,38.03,38.03,0,0,0,7.705-.1128,25.4562,25.4562,0,0,0,7.964-1.8892q2.9471-1.3755,4.8484-5.5093,2.0769-4.8569,5.3675-12.7832,3.2871-7.9224,7.2718-17.44,2.9416-5.0055,6.4062-9.7583,3.4611-4.751,6.2332-8.2578,2.7678-3.5034,4.4151-5.2616,1.6435-1.751,1.1256-.6259L195.4,138.7608l-.1731-.1433q-1.2125,2.805-2.25,5.6677-1.04,2.8648-2.078,5.6381l-.1731-.1433a83.7316,83.7316,0,0,0-3.7228,10.3363,20.3091,20.3091,0,0,0,.0869,9.6809,15.0687,15.0687,0,0,0,1.9041,4.6069,12.5,12.5,0,0,0,3.7229,3.8618,15.5884,15.5884,0,0,0,5.3675,2.2794,15.2211,15.2211,0,0,0,6.6654-.1071,28.4892,28.4892,0,0,0,7.0125-2.4187,52.3276,52.3276,0,0,0,9.09-5.7187,99.8451,99.8451,0,0,0,10.8215-9.7394c.9055-.9264,1.8269-1.9091,2.7611-2.9385a19.0961,19.0961,0,0,0,1.9984,3.9378,18.112,18.112,0,0,0,4.5014,4.6795,20.6475,20.6475,0,0,0,6.4933,3.1251,20.1849,20.1849,0,0,0,8.3972.46,28.7931,28.7931,0,0,0,13.1586-5.8131A75.1174,75.1174,0,0,0,280.93,154.6949a16.662,16.662,0,0,0,2.0781,3.7107,18.249,18.249,0,0,0,3.2026,3.432,14.77,14.77,0,0,0,4.155,2.4019,11.1153,11.1153,0,0,0,5.2817.5632,24.2055,24.2055,0,0,0,7.3578-1.8719,41.6129,41.6129,0,0,0,8.9173-5.2567,82.7353,82.7353,0,0,0,10.6483-9.7957,167.9535,167.9535,0,0,0,12.7255-15.6937q1.757-2.4367,3.1012-4.5264l-8.1236,20.1068a18.9351,18.9351,0,0,0-.9523,3.3673,6.7029,6.7029,0,0,0,.086,2.8417,4.3168,4.3168,0,0,0,3.8959,3.485,38.028,38.028,0,0,0,7.7048-.1128,26.6807,26.6807,0,0,0,7.878-1.7883q2.8575-1.27,4.7614-5.58l2.078-4.6856,1.5579-3.7307,2.078-4.6866q1.9032-4.3076,3.6357-8.1572,1.7294-3.8441,3.1167-7.5477l.6924-1.3316q2.9429-4.6619,6.32-9.3974t6.2331-8.3447q2.856-3.6071,4.5013-5.5356,1.6435-1.9263,1.1255-.799l-4.3282,11.1327-.1731-.1433q-1.214,2.8051-2.2511,5.6678-1.0386,2.8647-2.078,5.6382v-.1731l-.6924,1.6778a73.94,73.94,0,0,0-3.2026,9.3813,21.3091,21.3091,0,0,0,.0861,9.1609,14.9022,14.9022,0,0,0,1.9049,4.7808,12.1262,12.1262,0,0,0,3.6358,3.7889,14.322,14.322,0,0,0,5.2807,2.1221,16.809,16.809,0,0,0,6.8393-.224,34.519,34.519,0,0,0,7.0987-2.1735,42.1217,42.1217,0,0,0,8.83-5.2417,92.7531,92.7531,0,0,0,10.7345-9.6374c2.2232-2.28,4.5626-4.9444,7.01-7.9674a22.8262,22.8262,0,0,0,3.3774,4.6219,27.6524,27.6524,0,0,0,8.83,6.2729,34.1233,34.1233,0,0,0,10.9076,2.7981,49.7339,49.7339,0,0,0,11.6-.2634,51.2983,51.2983,0,0,0,19.0455-6.8258,77.7921,77.7921,0,0,0,15.4959-12.4474q3.46-3.5837,6.6211-7.4776a22.8655,22.8655,0,0,0,3.5079,4.8689,27.6527,27.6527,0,0,0,8.83,6.2729A34.128,34.128,0,0,0,522.805,124.17a49.7464,49.7464,0,0,0,11.6-.2635A51.2984,51.2984,0,0,0,553.45,117.081a77.7834,77.7834,0,0,0,15.4959-12.4475,119.3725,119.3725,0,0,0,12.8142-15.7959q5.7963-8.5293,10.82-16.8386l.1739-.8954v.6924A7.5584,7.5584,0,0,0,593.4465,66.3962Zm-56.9626,5.7293a37.53,37.53,0,0,1,11.08-10.043,7.1589,7.1589,0,0,1,3.29-1.2582q1.3839-.0642,1.5587.77.69,6.2892-5.5408,13.1592-6.2313,6.8749-17.833,11.2917A47.2928,47.2928,0,0,1,536.4839,72.1255Zm-248.022,41.97a38.9368,38.9368,0,0,1-1.4717,5.3608q-1.0386,3.036-2.4241,6.3909a.8757.8757,0,0,1-.0861.361.841.841,0,0,0-.087.3612Q275.734,145.2,268.464,146.45a4.5229,4.5229,0,0,1-3.4628-.356,4.22,4.22,0,0,1-2.078-2.5,12.5025,12.5025,0,0,1-.173-5.5971,33.323,33.323,0,0,1,2.0779-7.37,61.0368,61.0368,0,0,1,3.896-7.9418,37.8029,37.8029,0,0,1,5.2806-7.1415,25.6809,25.6809,0,0,1,6.4923-5.0126,13.6979,13.6979,0,0,1,7.3587-1.6982q.8646.0253.9524,1.4811A16.4148,16.4148,0,0,1,288.4619,114.0957Z"/>
    <g>
      <path d="M251.1352,221.117H239.75a1.5116,1.5116,0,0,1-1.513-1.513v-8.6779a1.5116,1.5116,0,0,1,1.513-1.513H275.1a1.5115,1.5115,0,0,1,1.5129,1.513v8.6779a1.5115,1.5115,0,0,1-1.5129,1.513H263.7147v42.5148a1.566,1.566,0,0,1-1.513,1.513h-9.5535a1.566,1.566,0,0,1-1.513-1.513Z"/>
      <path d="M283.7806,210.9261a1.566,1.566,0,0,1,1.513-1.513h9.4744a1.512,1.512,0,0,1,1.5129,1.513V230.99h22.77V210.9261a1.5113,1.5113,0,0,1,1.5122-1.513h9.4744a1.566,1.566,0,0,1,1.5129,1.513v52.7057a1.566,1.566,0,0,1-1.5129,1.513h-9.4744a1.5113,1.5113,0,0,1-1.5122-1.513V242.6935h-22.77v20.9383a1.512,1.512,0,0,1-1.5129,1.513h-9.4744a1.566,1.566,0,0,1-1.513-1.513Z"/>
      <path d="M343.976,210.9261a1.512,1.512,0,0,1,1.5129-1.513H378.45a1.5121,1.5121,0,0,1,1.513,1.513v8.6779a1.5121,1.5121,0,0,1-1.513,1.513H356.3963V230.99h18.1524a1.566,1.566,0,0,1,1.5129,1.513v8.6779a1.5126,1.5126,0,0,1-1.5129,1.513H356.3963v10.7474H378.45a1.5121,1.5121,0,0,1,1.513,1.513v8.6779a1.5121,1.5121,0,0,1-1.513,1.513H345.4889a1.512,1.512,0,0,1-1.5129-1.513Z"/>
      <path d="M406.6391,210.9261a1.4971,1.4971,0,0,1,1.433-1.513h19.427a27.866,27.866,0,1,1,0,55.7317h-19.427a1.4971,1.4971,0,0,1-1.433-1.513Zm20.0635,42.4349c8.9962,0,15.5247-7.0851,15.5247-16.1612,0-8.9978-6.5285-16.0828-15.5247-16.0828H419.06v32.244Z"/>
      <path d="M462.2956,210.9261a1.5115,1.5115,0,0,1,1.513-1.513h32.96a1.5115,1.5115,0,0,1,1.513,1.513v8.6779a1.5115,1.5115,0,0,1-1.513,1.513H474.716V230.99h18.1523a1.566,1.566,0,0,1,1.5129,1.513v8.6779a1.5126,1.5126,0,0,1-1.5129,1.513H474.716v10.7474h22.053a1.5115,1.5115,0,0,1,1.513,1.513v8.6779a1.5115,1.5115,0,0,1-1.513,1.513h-32.96a1.5115,1.5115,0,0,1-1.513-1.513Z"/>
      <path d="M500.9929,211.4826a1.4049,1.4049,0,0,1,1.353-2.07H512.935a1.56,1.56,0,0,1,1.353.8764l13.1369,29.06h.4782L541.04,210.29a1.56,1.56,0,0,1,1.3531-.8764h10.5891a1.4049,1.4049,0,0,1,1.353,2.07l-24.999,53.5822a1.5165,1.5165,0,0,1-1.353.8764h-.7965a1.5165,1.5165,0,0,1-1.353-.8764Z"/>
    </g>
  </g>
</svg>
